PathFileType	4	(X/Y/Z)	5_coords_data.trc
DataRate	CameraRate	NumFrames	NumMarkers	Units	OrigDataRate	OrigDataStartFrame	OrigNumFrames
30.0	30.0	7	21	m	30.0	1	57
Frame#	Time	THUMB_TIP	THUMB_IP	THUMB_MCP	THUMB_CMC	INDEX_TIP	INDEX_DIP	INDEX_PIP	INDEX_MCP	MIDDLE_TIP	MIDDLE_DIP	MIDDLE_PIP	MIDDLE_MCP	RING_TIP	RING_DIP	RING_PIP	RING_MCP	PINKY_TIP	PINKY_DIP	PINKY_PIP	PINKY_MCP	WRIST
X1	Y1	Z1	X2	Y2	Z2	X3	Y3	Z3	X4	Y4	Z4	X5	Y5	Z5	X6	Y6	Z6	X7	Y7	Z7	X8	Y8	Z8	X9	Y9	Z9	X10	Y10	Z10	X11	Y11	Z11	X12	Y12	Z12	X13	Y13	Z13	X14	Y14	Z14	X15	Y15	Z15	X16	Y16	Z16	X17	Y17	Z17	X18	Y18	Z18	X19	Y19	Z19	X20	Y20	Z20	X21	Y21	Z21
0	0.0	-0.007123610019683838	-0.14821699523925783	1.06175	-0.011064200401306153	-0.12284400177001953	1.054510009765625	-0.03167000007629395	-0.10069200134277344	1.05656005859375	-0.036234600067138675	-0.06575299835205078	1.05668994140625	-0.006504779815673828	-0.12744200134277345	0.9326400146484375	-0.016483200073242187	-0.11802899932861328	0.9509359741210938	-0.025595300674438475	-0.10774299621582031	0.9678040161132813	-0.03242649841308594	-0.088168701171875	0.9978309936523437	-0.01433080005645752	-0.08205470275878907	0.9023460083007813	-0.022368099212646483	-0.0802229995727539	0.9265440063476562	-0.031008399963378907	-0.07585880279541016	0.9563250122070313	-0.04118360137939453	-0.06830970001220703	0.9981290283203125	-0.0263439998626709	-0.0525895004272461	0.9049760131835938	-0.02750130081176758	-0.05255830001831055	0.9306510009765625	-0.03264260101318359	-0.05028160095214844	0.957635986328125	-0.039206901550292966	-0.048881301879882814	1.005219970703125	-0.01772529983520508	-0.010104000091552734	0.9354000244140624	-0.019940299987792967	-0.01721430015563965	0.9549089965820312	-0.022593700408935546	-0.023607799530029297	0.9721580200195312	-0.025438899993896483	-0.03201150131225586	0.9940919799804687	-0.057765701293945315	-0.03620380020141602	1.0661300048828124
1	0.03333333333333333	-0.006408669948577881	-0.1479530029296875	1.06202001953125	-0.011361900329589844	-0.12349500274658202	1.0546500244140624	-0.031138099670410157	-0.10110800170898437	1.0561400146484374	-0.03736539840698242	-0.06621579742431641	1.0553800048828126	-0.007202000141143799	-0.12870500183105468	0.9339520263671875	-0.016817399978637695	-0.11879199981689453	0.9515380249023437	-0.026346099853515624	-0.10805400085449218	0.969801025390625	-0.035443500518798826	-0.0879104995727539	1.0004099731445313	-0.014965900421142578	-0.08264659881591797	0.9034429931640625	-0.021699499130249024	-0.08055909729003906	0.9276309814453125	-0.03039109992980957	-0.076693603515625	0.95564501953125	-0.037533298492431644	-0.06857879638671875	0.9931329956054687	-0.025762399673461913	-0.053620800018310544	0.9058070068359375	-0.027094200134277345	-0.052044898986816406	0.9303109741210938	-0.03096969985961914	-0.05060540008544922	0.9570800170898438	-0.033372699737548826	-0.049397300720214844	0.992739013671875	-0.017019899368286132	-0.010709699630737304	0.9360159912109375	-0.019685499191284178	-0.017442100524902342	0.9552769775390625	-0.02334269905090332	-0.02371549987792969	0.9724530029296875	-0.02821940040588379	-0.03244559860229492	0.9968179931640625	-0.05723410034179687	-0.036154300689697265	1.0654300537109376
2	0.06666666666666667	-0.006459790229797363	-0.14806500244140625	1.06193994140625	-0.011284199714660645	-0.12347599792480468	1.0545999755859374	-0.031198299407958985	-0.10116500091552734	1.0561700439453126	-0.037430400848388674	-0.06632029724121094	1.0554000244140624	-0.006921770095825196	-0.12870899963378907	0.9340910034179688	-0.01664780044555664	-0.11878900146484375	0.9516489868164062	-0.026234100341796875	-0.10807700347900391	0.969822998046875	-0.03551969909667969	-0.08794670104980469	1.0004500122070312	-0.014809800148010253	-0.082591796875	0.9035139770507813	-0.021567800521850585	-0.0805238037109375	0.927635986328125	-0.030288499832153322	-0.07668409729003907	0.955677001953125	-0.03746670150756836	-0.06859750366210937	0.9931190185546875	-0.025342300415039064	-0.05348360061645508	0.905864990234375	-0.026785200119018554	-0.05194329833984375	0.930364990234375	-0.03076799964904785	-0.05054029846191406	0.9570989990234375	-0.033294498443603514	-0.049396198272705076	0.9928330078125	-0.01661090087890625	-0.010687700271606445	0.9362890014648437	-0.019367300033569335	-0.01744879913330078	0.9554730224609375	-0.02310639953613281	-0.023720800399780275	0.9725989990234375	-0.02814419937133789	-0.03247489929199219	0.9969420166015625	-0.057267200469970705	-0.03622520065307617	1.06543994140625
3	0.1	-0.006206329822540283	-0.14802000427246093	1.061780029296875	-0.011167499542236328	-0.1235510025024414	1.0543800048828125	-0.03120709991455078	-0.10121199798583984	1.05602001953125	-0.03734199905395508	-0.06637760162353516	1.0553699951171875	-0.006662590026855469	-0.12846499633789063	0.9339949951171875	-0.016413900375366212	-0.1185790023803711	0.9515189819335937	-0.026054500579833984	-0.10791500091552735	0.9697680053710938	-0.035377498626708984	-0.08787840270996093	1.0003300170898437	-0.014565400123596191	-0.08221099853515625	0.9035	-0.021348400115966795	-0.08020099639892578	0.9276010131835938	-0.03010110092163086	-0.07649189758300781	0.9556209716796875	-0.03748189926147461	-0.06845909881591797	0.9931539916992187	-0.024846500396728515	-0.05305810165405273	0.9059240112304687	-0.02645840072631836	-0.051645801544189456	0.9304569702148437	-0.030582799911499023	-0.05033340072631836	0.95710302734375	-0.033257801055908205	-0.04926110076904297	0.99293798828125	-0.016346900939941407	-0.010466300010681152	0.93643798828125	-0.019209100723266603	-0.017238500595092774	0.9556920166015626	-0.0230132999420166	-0.023536800384521484	0.9727730102539063	-0.02804560089111328	-0.03237139892578125	0.9970130004882812	-0.05728630065917969	-0.036309898376464846	1.0655
4	0.13333333333333333	-0.006024449825286865	-0.148	1.061739990234375	-0.010935999870300294	-0.12355799865722657	1.0543499755859376	-0.030875099182128905	-0.1011750030517578	1.055969970703125	-0.03728179931640625	-0.06641690063476563	1.0554599609375	-0.006657010078430176	-0.1283350067138672	0.9339760131835938	-0.016342199325561524	-0.11848200225830079	0.9515499877929687	-0.025933300018310547	-0.1078280029296875	0.9697949829101562	-0.03524769973754883	-0.0877876968383789	1.0004199829101563	-0.014521499633789063	-0.08202259826660156	0.9035650024414063	-0.02128779983520508	-0.08007360076904296	0.927698974609375	-0.03005349922180176	-0.07640270233154296	0.9556939697265625	-0.037330398559570314	-0.06837439727783202	0.993280029296875	-0.02479960060119629	-0.05290850067138672	0.906	-0.026427299499511718	-0.051522701263427735	0.9305640258789063	-0.03057900047302246	-0.05024589920043945	0.9572269897460938	-0.033294998168945315	-0.049211101531982424	0.9930880126953125	-0.01636490058898926	-0.010344300270080566	0.9365969848632812	-0.019187599182128905	-0.017116199493408202	0.9559019775390625	-0.02296940040588379	-0.02345359992980957	0.9728790283203125	-0.028097700119018555	-0.03232740020751953	0.9972009887695312	-0.057338600158691404	-0.03634769821166992	1.0656199951171874
5	0.16666666666666666	-0.005969689846038818	-0.14810299682617187	1.06177001953125	-0.010856499671936035	-0.12365599822998047	1.0544200439453124	-0.03117690086364746	-0.10115399932861328	1.05618994140625	-0.03717620086669922	-0.06654319763183594	1.055469970703125	-0.006895400047302246	-0.12841200256347657	0.933989013671875	-0.01648390007019043	-0.11855500030517578	0.9516380004882813	-0.02598080062866211	-0.10788300323486329	0.9699409790039063	-0.03520729827880859	-0.08784929656982422	1.0005499877929687	-0.014560500144958495	-0.08201370239257813	0.903708984375	-0.021329399108886718	-0.08006559753417969	0.9278699951171875	-0.030105100631713868	-0.07640609741210938	0.9558839721679687	-0.037420299530029295	-0.06844200134277344	0.9934459838867188	-0.024706600189208984	-0.05283570098876953	0.9061690063476563	-0.026378400802612306	-0.051472400665283205	0.9307739868164062	-0.030524999618530273	-0.0502239990234375	0.9574639892578125	-0.03326330184936523	-0.0493129997253418	0.9931649780273437	-0.01629010009765625	-0.01041100025177002	0.9368049926757812	-0.019154199600219725	-0.017197700500488283	0.9559829711914063	-0.02286090087890625	-0.02353660011291504	0.9730650024414063	-0.02804439926147461	-0.03239189910888672	0.9974019775390625	-0.057313400268554686	-0.036438098907470705	1.0656700439453124
6	0.2	-0.005917640209197998	-0.14821699523925783	1.0616400146484375	-0.01078320026397705	-0.12370200347900391	1.0544300537109375	-0.03076230049133301	-0.10135399627685547	1.0560899658203124	-0.03719390106201172	-0.06657599639892578	1.05575	-0.007335410118103027	-0.12840199279785156	0.9338140258789063	-0.01670789909362793	-0.11853800201416016	0.9515579833984374	-0.026019500732421874	-0.10787200164794922	0.9699420166015625	-0.03535369873046875	-0.0878916015625	1.0007000122070313	-0.014839300155639648	-0.081881103515625	0.9036950073242187	-0.02154840087890625	-0.0799739990234375	0.927906982421875	-0.03026070022583008	-0.07636579895019531	0.9559530029296875	-0.03750469970703125	-0.0685198974609375	0.9935349731445312	-0.024701900482177734	-0.05266339874267578	0.9062930297851562	-0.02637809944152832	-0.05135390090942383	0.930864013671875	-0.030541099548339844	-0.05015340042114258	0.957593017578125	-0.03329100036621094	-0.04930780029296875	0.9932930297851562	-0.016104299545288085	-0.010342800140380859	0.9370789794921875	-0.01905590057373047	-0.01716069984436035	0.956260009765625	-0.02286840057373047	-0.023538600921630858	0.9733159790039062	-0.028064800262451173	-0.032425998687744144	0.9975640258789062	-0.05737710189819336	-0.0363926010131836	1.066010009765625
